<svg xmlns="http://www.w3.org/2000/svg" version="1.1" xmlns:xlink="http://www.w3.org/1999/xlink" xmlns:svgjs="http://svgjs.dev/svgjs" width="1500" height="215" viewBox="0 0 1500 215"><g transform="matrix(1,0,0,1,-0.9090909090909918,0.6038818533142631)"><svg viewBox="0 0 396 57" data-background-color="#000000" preserveAspectRatio="xMidYMid meet" height="215" width="1500" xmlns="http://www.w3.org/2000/svg" xmlns:xlink="http://www.w3.org/1999/xlink"><g id="tight-bounds" transform="matrix(1,0,0,1,0.2400000000000091,-0.1600989099484309)"><svg viewBox="0 0 395.52 57.32019781989683" height="57.32019781989683" width="395.52"><g><svg viewBox="0 0 496.89137142884897 72.01130588921284" height="57.32019781989683" width="395.52"><g></g><g transform="matrix(1,0,0,1,101.37137142884903,9.952358483965018)"><svg viewBox="0 0 395.52 52.1065889212828" height="52.1065889212828" width="395.52"><g id="textblocktransform"><svg viewBox="0 0 395.52 52.1065889212828" height="52.1065889212828" width="395.52" id="textblock"><g><svg viewBox="0 0 395.52 52.1065889212828" height="52.1065889212828" width="395.52"><g transform="matrix(1,0,0,1,0,0)"><svg width="395.52" viewBox="0.9 -35.7 274.37 36.150000000000006" height="52.1065889212828" data-palette-color="url(#0ba1a831-3234-4889-a602-ccbdc85fbdf5)"></svg></g></svg></g></svg></g></svg></g><g><svg viewBox="0 0 72.07011529356646 72.01130588921284" height="72.01130588921284" width="72.07011529356646"><g><svg xmlns="http://www.w3.org/2000/svg" viewBox="18.955037579046298 18.994012146667036 62.08985447702248 62.039188991844284" x="0" y="0" height="72.01130588921284" width="72.07011529356646" class="icon-icon-0" data-fill-palette-color="accent" id="icon-0"></svg></g></svg></g></svg></g><defs></defs><mask id="26019c40-adae-467b-98d6-31e7af0e44ed"><g id="SvgjsG2234"><svg viewBox="0 0 395.52 57.32019781989683" height="57.32019781989683" width="395.52"><g><svg viewBox="0 0 496.89137142884897 72.01130588921284" height="57.32019781989683" width="395.52"><g><rect width="4.699025962921049" height="62.52790670553936" x="84.37123037974722" y="4.741699591836738" fill="white" opacity="1" stroke-width="0" stroke="transparent" fill-opacity="1" class="rect-qz-0" rx="1%" id="SvgjsRect2233" data-palette-color="url(#0ba1a831-3234-4889-a602-ccbdc85fbdf5)"></rect></g><g transform="matrix(1,0,0,1,101.37137142884903,9.952358483965018)"><svg viewBox="0 0 395.52 52.1065889212828" height="52.1065889212828" width="395.52"><g id="SvgjsG2232"><svg viewBox="0 0 395.52 52.1065889212828" height="52.1065889212828" width="395.52" id="SvgjsSvg2231"><g><svg viewBox="0 0 395.52 52.1065889212828" height="52.1065889212828" width="395.52"><g transform="matrix(1,0,0,1,0,0)"><svg width="395.52" viewBox="0.9 -35.7 274.37 36.150000000000006" height="52.1065889212828" data-palette-color="url(#0ba1a831-3234-4889-a602-ccbdc85fbdf5)"><path d="M23.15-33.7L23.15-30.15 14.05-30.15 14.05 0 10 0 10-30.15 0.9-30.15 0.9-33.7 23.15-33.7ZM50.05-12.6L50.05-12.6Q50.05-6.95 46.85-3.25 43.65 0.45 38.05 0.45L38.05 0.45Q32.6 0.45 29.42-3.23 26.25-6.9 26.25-12.5L26.25-12.5Q26.25-18.15 29.52-21.93 32.8-25.7 38.05-25.7L38.05-25.7Q43.8-25.7 46.92-22 50.05-18.3 50.05-12.6ZM30.35-12.55L30.35-12.55Q30.35-8.6 32.45-5.83 34.55-3.05 38.05-3.05L38.05-3.05Q41.85-3.05 43.9-5.78 45.95-8.5 45.95-12.55L45.95-12.55Q45.95-16.75 44-19.48 42.05-22.2 38.05-22.2L38.05-22.2Q34.45-22.2 32.4-19.4 30.35-16.6 30.35-12.55ZM79.84-4.4L79.84-0.65Q78.19 0.25 76.14 0.25L76.14 0.25Q68.64 0.25 68.64-7.4L68.64-7.4 68.64-22.15 64.59-22.15 64.59-25.35 68.64-25.35 68.64-31.65 72.59-31.65 72.59-25.35 79.59-25.35 79.59-22.15 72.59-22.15 72.59-7.3Q72.59-3.25 76.39-3.25L76.39-3.25Q78.34-3.25 79.84-4.4L79.84-4.4ZM105.59-17.35L105.59 0 101.64 0 101.64-16.4Q101.64-19.15 100.22-20.65 98.79-22.15 96.49-22.15L96.49-22.15Q93.69-22.15 91.59-20 89.49-17.85 89.49-13.85L89.49-13.85 89.49 0 85.59 0 85.59-35.35 89.49-35.35 89.49-20.95Q91.74-25.7 97.49-25.7L97.49-25.7Q101.14-25.7 103.37-23.45 105.59-21.2 105.59-17.35L105.59-17.35ZM131.09-5L131.09-1.3Q128.14 0.25 123.89 0.25L123.89 0.25Q118.14 0.25 114.61-3.28 111.09-6.8 111.09-12.6L111.09-12.6Q111.09-18.65 114.24-22.15 117.39-25.65 122.34-25.65L122.34-25.65Q127.09-25.65 129.89-22.6 132.69-19.55 132.69-13.95L132.69-13.95Q132.69-12.35 132.44-11L132.44-11 115.14-11Q115.59-7.25 117.99-5.25 120.39-3.25 124.29-3.25L124.29-3.25Q128.54-3.25 131.09-5L131.09-5ZM122.34-22.2L122.34-22.2Q119.49-22.2 117.49-20.15 115.49-18.1 115.14-14.3L115.14-14.3 128.74-14.3 128.74-15.3Q128.74-18.45 127.04-20.33 125.34-22.2 122.34-22.2ZM161.73-25.35L161.73-22.15 156.13-22.15 156.13 0 152.18 0 152.18-22.15 147.83-22.15 147.83-25.35 152.18-25.35 152.18-27.7Q152.18-31.4 154.16-33.55 156.13-35.7 159.63-35.7L159.63-35.7Q160.83-35.7 162.08-35.35L162.08-35.35 162.08-31.75Q160.88-32.15 159.78-32.15L159.78-32.15Q158.18-32.15 157.16-31.05 156.13-29.95 156.13-27.65L156.13-27.65 156.13-25.35 161.73-25.35ZM186.13-25.35L186.13 0 182.18 0 182.18-4.4Q180.18 0.3 174.23 0.3L174.23 0.3Q170.48 0.3 168.31-1.93 166.13-4.15 166.13-7.9L166.13-7.9 166.13-25.35 170.08-25.35 170.08-8.9Q170.08-6.15 171.48-4.7 172.88-3.25 175.28-3.25L175.28-3.25Q178.43-3.25 180.31-5.45 182.18-7.65 182.18-11.4L182.18-11.4 182.18-25.35 186.13-25.35ZM206.13-4.4L206.13-0.65Q204.48 0.25 202.43 0.25L202.43 0.25Q194.93 0.25 194.93-7.4L194.93-7.4 194.93-22.15 190.88-22.15 190.88-25.35 194.93-25.35 194.93-31.65 198.88-31.65 198.88-25.35 205.88-25.35 205.88-22.15 198.88-22.15 198.88-7.3Q198.88-3.25 202.68-3.25L202.68-3.25Q204.63-3.25 206.13-4.4L206.13-4.4ZM231.58-25.35L231.58 0 227.63 0 227.63-4.4Q225.63 0.3 219.68 0.3L219.68 0.3Q215.93 0.3 213.75-1.93 211.58-4.15 211.58-7.9L211.58-7.9 211.58-25.35 215.53-25.35 215.53-8.9Q215.53-6.15 216.93-4.7 218.33-3.25 220.73-3.25L220.73-3.25Q223.88-3.25 225.75-5.45 227.63-7.65 227.63-11.4L227.63-11.4 227.63-25.35 231.58-25.35ZM242.77-13.85L242.77 0 238.82 0 238.87-25.35 242.77-25.35 242.77-20.9Q244.77-25.6 249.67-25.6L249.67-25.6Q250.57-25.6 251.07-25.5L251.07-25.5 251.07-21.6Q250.02-21.95 248.92-21.95L248.92-21.95Q246.27-21.95 244.52-19.5 242.77-17.05 242.77-13.85L242.77-13.85ZM273.67-5L273.67-1.3Q270.72 0.25 266.47 0.25L266.47 0.25Q260.72 0.25 257.2-3.28 253.67-6.8 253.67-12.6L253.67-12.6Q253.67-18.65 256.82-22.15 259.97-25.65 264.92-25.65L264.92-25.65Q269.67-25.65 272.47-22.6 275.27-19.55 275.27-13.95L275.27-13.95Q275.27-12.35 275.02-11L275.02-11 257.72-11Q258.17-7.25 260.57-5.25 262.97-3.25 266.87-3.25L266.87-3.25Q271.12-3.25 273.67-5L273.67-5ZM264.92-22.2L264.92-22.2Q262.07-22.2 260.07-20.15 258.07-18.1 257.72-14.3L257.72-14.3 271.32-14.3 271.32-15.3Q271.32-18.45 269.62-20.33 267.92-22.2 264.92-22.2Z" opacity="1" transform="matrix(1,0,0,1,0,0)" fill="white" class="wordmark-text-0" id="SvgjsPath2230"></path></svg></g></svg></g></svg></g></svg></g><g><svg viewBox="0 0 72.07011529356646 72.01130588921284" height="72.01130588921284" width="72.07011529356646"><g><svg xmlns="http://www.w3.org/2000/svg" viewBox="18.955037579046298 18.994012146667036 62.08985447702248 62.039188991844284" x="0" y="0" height="72.01130588921284" width="72.07011529356646" class="icon-icon-0" data-fill-palette-color="accent" id="SvgjsSvg2229"><path d="M80.603 68.128L64.151 57.056a1 1 0 0 0-1.558 0.83v5.166H45.327L59.835 48.545l3.637 3.638a1 1 0 0 0 1.689-0.516l3.8-19.461a1 1 0 0 0-1.173-1.173l-19.458 3.803a1 1 0 0 0-0.516 1.688l3.651 3.651-14.506 14.502V37.416h5.146a1 1 0 0 0 0.83-1.559L31.857 19.408a1.038 1.038 0 0 0-1.659 0L19.125 35.857a1 1 0 0 0 0.83 1.559h5.166V71.371a3.523 3.523 0 0 0 3.517 3.517H62.593V80.033a1 1 0 0 0 1.558 0.829l16.453-11.075a1 1 0 0 0-0.001-1.659ZM64.593 78.154V74.519a1.633 1.633 0 0 0-1.632-1.631H28.638a1.521 1.521 0 0 1-1.517-1.517V37.045A1.631 1.631 0 0 0 25.49 35.416H21.834l9.194-13.659L40.227 35.416H36.588a1.63 1.63 0 0 0-1.629 1.629V55.575a1.63 1.63 0 0 0 2.781 1.153 0.563 0.563 0 0 0 0.039-0.042l15.362-15.359a1.631 1.631 0 0 0 0-2.305l-2.584-2.584 16.157-3.157-3.156 16.158-2.573-2.573a1.633 1.633 0 0 0-2.3 0.002L43.28 62.27a1.63 1.63 0 0 0 1.155 2.782H62.961a1.633 1.633 0 0 0 1.632-1.631V59.764L78.254 68.958Z" fill="black"></path></svg></g></svg></g></svg></g><defs><mask></mask></defs></svg><rect width="395.52" height="57.32019781989683" fill="black" stroke="none" visibility="hidden"></rect></g></mask><linearGradient x1="0" x2="1" y1="0.578" y2="0.595" id="0ba1a831-3234-4889-a602-ccbdc85fbdf5"><stop stop-color="#6ee2f5" offset="0"></stop><stop stop-color="#6454f0" offset="1"></stop></linearGradient><rect width="395.52" height="57.32019781989683" fill="url(#0ba1a831-3234-4889-a602-ccbdc85fbdf5)" mask="url(#26019c40-adae-467b-98d6-31e7af0e44ed)" data-fill-palette-color="primary"></rect><mask id="7b5ce712-b786-4fe1-bd2e-1310334d003b"><g id="SvgjsG2255"><svg viewBox="0 0 395.52 57.32019781989683" height="57.32019781989683" width="395.52"><g><svg viewBox="0 0 496.89137142884897 72.01130588921284" height="57.32019781989683" width="395.52"><g></g><g transform="matrix(1,0,0,1,101.37137142884903,9.952358483965018)"><svg viewBox="0 0 395.52 52.1065889212828" height="52.1065889212828" width="395.52"><g id="SvgjsG2254"><svg viewBox="0 0 395.52 52.1065889212828" height="52.1065889212828" width="395.52" id="SvgjsSvg2253"><g><svg viewBox="0 0 395.52 52.1065889212828" height="52.1065889212828" width="395.52"><g transform="matrix(1,0,0,1,0,0)"><svg width="395.52" viewBox="0.9 -35.7 274.37 36.150000000000006" height="52.1065889212828" data-palette-color="url(#0ba1a831-3234-4889-a602-ccbdc85fbdf5)"></svg></g></svg></g></svg></g></svg></g><g><svg viewBox="0 0 72.07011529356646 72.01130588921284" height="72.01130588921284" width="72.07011529356646"><g><svg xmlns="http://www.w3.org/2000/svg" viewBox="18.955037579046298 18.994012146667036 62.08985447702248 62.039188991844284" x="0" y="0" height="72.01130588921284" width="72.07011529356646" class="icon-icon-0" data-fill-palette-color="accent" id="SvgjsSvg2252"><path d="M80.603 68.128L64.151 57.056a1 1 0 0 0-1.558 0.83v5.166H45.327L59.835 48.545l3.637 3.638a1 1 0 0 0 1.689-0.516l3.8-19.461a1 1 0 0 0-1.173-1.173l-19.458 3.803a1 1 0 0 0-0.516 1.688l3.651 3.651-14.506 14.502V37.416h5.146a1 1 0 0 0 0.83-1.559L31.857 19.408a1.038 1.038 0 0 0-1.659 0L19.125 35.857a1 1 0 0 0 0.83 1.559h5.166V71.371a3.523 3.523 0 0 0 3.517 3.517H62.593V80.033a1 1 0 0 0 1.558 0.829l16.453-11.075a1 1 0 0 0-0.001-1.659ZM64.593 78.154V74.519a1.633 1.633 0 0 0-1.632-1.631H28.638a1.521 1.521 0 0 1-1.517-1.517V37.045A1.631 1.631 0 0 0 25.49 35.416H21.834l9.194-13.659L40.227 35.416H36.588a1.63 1.63 0 0 0-1.629 1.629V55.575a1.63 1.63 0 0 0 2.781 1.153 0.563 0.563 0 0 0 0.039-0.042l15.362-15.359a1.631 1.631 0 0 0 0-2.305l-2.584-2.584 16.157-3.157-3.156 16.158-2.573-2.573a1.633 1.633 0 0 0-2.3 0.002L43.28 62.27a1.63 1.63 0 0 0 1.155 2.782H62.961a1.633 1.633 0 0 0 1.632-1.631V59.764L78.254 68.958Z" fill="white"></path></svg></g></svg></g></svg></g><defs><mask></mask></defs><mask><g id="SvgjsG2251"><svg viewBox="0 0 395.52 57.32019781989683" height="57.32019781989683" width="395.52"><g><svg viewBox="0 0 496.89137142884897 72.01130588921284" height="57.32019781989683" width="395.52"><g><rect width="4.699025962921049" height="62.52790670553936" x="84.37123037974722" y="4.741699591836738" fill="black" opacity="1" stroke-width="0" stroke="transparent" fill-opacity="1" class="rect-qz-0" rx="1%" id="SvgjsRect2250" data-palette-color="url(#0ba1a831-3234-4889-a602-ccbdc85fbdf5)"></rect></g><g transform="matrix(1,0,0,1,101.37137142884903,9.952358483965018)"><svg viewBox="0 0 395.52 52.1065889212828" height="52.1065889212828" width="395.52"><g id="SvgjsG2249"><svg viewBox="0 0 395.52 52.1065889212828" height="52.1065889212828" width="395.52" id="SvgjsSvg2248"><g><svg viewBox="0 0 395.52 52.1065889212828" height="52.1065889212828" width="395.52"><g transform="matrix(1,0,0,1,0,0)"><svg width="395.52" viewBox="0.9 -35.7 274.37 36.150000000000006" height="52.1065889212828" data-palette-color="url(#0ba1a831-3234-4889-a602-ccbdc85fbdf5)"><path d="M23.15-33.7L23.15-30.15 14.05-30.15 14.05 0 10 0 10-30.15 0.9-30.15 0.9-33.7 23.15-33.7ZM50.05-12.6L50.05-12.6Q50.05-6.95 46.85-3.25 43.65 0.45 38.05 0.45L38.05 0.45Q32.6 0.45 29.42-3.23 26.25-6.9 26.25-12.5L26.25-12.5Q26.25-18.15 29.52-21.93 32.8-25.7 38.05-25.7L38.05-25.7Q43.8-25.7 46.92-22 50.05-18.3 50.05-12.6ZM30.35-12.55L30.35-12.55Q30.35-8.6 32.45-5.83 34.55-3.05 38.05-3.05L38.05-3.05Q41.85-3.05 43.9-5.78 45.95-8.5 45.95-12.55L45.95-12.55Q45.95-16.75 44-19.48 42.05-22.2 38.05-22.2L38.05-22.2Q34.45-22.2 32.4-19.4 30.35-16.6 30.35-12.55ZM79.84-4.4L79.84-0.65Q78.19 0.25 76.14 0.25L76.14 0.25Q68.64 0.25 68.64-7.4L68.64-7.4 68.64-22.15 64.59-22.15 64.59-25.35 68.64-25.35 68.64-31.65 72.59-31.65 72.59-25.35 79.59-25.35 79.59-22.15 72.59-22.15 72.59-7.3Q72.59-3.25 76.39-3.25L76.39-3.25Q78.34-3.25 79.84-4.4L79.84-4.4ZM105.59-17.35L105.59 0 101.64 0 101.64-16.4Q101.64-19.15 100.22-20.65 98.79-22.15 96.49-22.15L96.49-22.15Q93.69-22.15 91.59-20 89.49-17.85 89.49-13.85L89.49-13.85 89.49 0 85.59 0 85.59-35.35 89.49-35.35 89.49-20.95Q91.74-25.7 97.49-25.7L97.49-25.7Q101.14-25.7 103.37-23.45 105.59-21.2 105.59-17.35L105.59-17.35ZM131.09-5L131.09-1.3Q128.14 0.25 123.89 0.25L123.89 0.25Q118.14 0.25 114.61-3.28 111.09-6.8 111.09-12.6L111.09-12.6Q111.09-18.65 114.24-22.15 117.39-25.65 122.34-25.65L122.34-25.65Q127.09-25.65 129.89-22.6 132.69-19.55 132.69-13.95L132.69-13.95Q132.69-12.35 132.44-11L132.44-11 115.14-11Q115.59-7.25 117.99-5.25 120.39-3.25 124.29-3.25L124.29-3.25Q128.54-3.25 131.09-5L131.09-5ZM122.34-22.2L122.34-22.2Q119.49-22.2 117.49-20.15 115.49-18.1 115.14-14.3L115.14-14.3 128.74-14.3 128.74-15.3Q128.74-18.45 127.04-20.33 125.34-22.2 122.34-22.2ZM161.73-25.35L161.73-22.15 156.13-22.15 156.13 0 152.18 0 152.18-22.15 147.83-22.15 147.83-25.35 152.18-25.35 152.18-27.7Q152.18-31.4 154.16-33.55 156.13-35.7 159.63-35.7L159.63-35.7Q160.83-35.7 162.08-35.35L162.08-35.35 162.08-31.75Q160.88-32.15 159.78-32.15L159.78-32.15Q158.18-32.15 157.16-31.05 156.13-29.95 156.13-27.65L156.13-27.65 156.13-25.35 161.73-25.35ZM186.13-25.35L186.13 0 182.18 0 182.18-4.4Q180.18 0.3 174.23 0.3L174.23 0.3Q170.48 0.3 168.31-1.93 166.13-4.15 166.13-7.9L166.13-7.9 166.13-25.35 170.08-25.35 170.08-8.9Q170.08-6.15 171.48-4.7 172.88-3.25 175.28-3.25L175.28-3.25Q178.43-3.25 180.31-5.45 182.18-7.65 182.18-11.4L182.18-11.4 182.18-25.35 186.13-25.35ZM206.13-4.4L206.13-0.65Q204.48 0.25 202.43 0.25L202.43 0.25Q194.93 0.25 194.93-7.4L194.93-7.4 194.93-22.15 190.88-22.15 190.88-25.35 194.93-25.35 194.93-31.65 198.88-31.65 198.88-25.35 205.88-25.35 205.88-22.15 198.88-22.15 198.88-7.3Q198.88-3.25 202.68-3.25L202.68-3.25Q204.63-3.25 206.13-4.4L206.13-4.4ZM231.58-25.35L231.58 0 227.63 0 227.63-4.4Q225.63 0.3 219.68 0.3L219.68 0.3Q215.93 0.3 213.75-1.93 211.58-4.15 211.58-7.9L211.58-7.9 211.58-25.35 215.53-25.35 215.53-8.9Q215.53-6.15 216.93-4.7 218.33-3.25 220.73-3.25L220.73-3.25Q223.88-3.25 225.75-5.45 227.63-7.65 227.63-11.4L227.63-11.4 227.63-25.35 231.58-25.35ZM242.77-13.85L242.77 0 238.82 0 238.87-25.35 242.77-25.35 242.77-20.9Q244.77-25.6 249.67-25.6L249.67-25.6Q250.57-25.6 251.07-25.5L251.07-25.5 251.07-21.6Q250.02-21.95 248.92-21.95L248.92-21.95Q246.27-21.95 244.52-19.5 242.77-17.05 242.77-13.85L242.77-13.85ZM273.67-5L273.67-1.3Q270.72 0.25 266.47 0.25L266.47 0.25Q260.72 0.25 257.2-3.28 253.67-6.8 253.67-12.6L253.67-12.6Q253.67-18.65 256.82-22.15 259.97-25.65 264.92-25.65L264.92-25.65Q269.67-25.65 272.47-22.6 275.27-19.55 275.27-13.95L275.27-13.95Q275.27-12.35 275.02-11L275.02-11 257.72-11Q258.17-7.25 260.57-5.25 262.97-3.25 266.87-3.25L266.87-3.25Q271.12-3.25 273.67-5L273.67-5ZM264.92-22.2L264.92-22.2Q262.07-22.2 260.07-20.15 258.07-18.1 257.72-14.3L257.72-14.3 271.32-14.3 271.32-15.3Q271.32-18.45 269.62-20.33 267.92-22.2 264.92-22.2Z" opacity="1" transform="matrix(1,0,0,1,0,0)" fill="black" class="wordmark-text-0" id="SvgjsPath2247"></path></svg></g></svg></g></svg></g></svg></g><g><svg viewBox="0 0 72.07011529356646 72.01130588921284" height="72.01130588921284" width="72.07011529356646"><g><svg xmlns="http://www.w3.org/2000/svg" viewBox="18.955037579046298 18.994012146667036 62.08985447702248 62.039188991844284" x="0" y="0" height="72.01130588921284" width="72.07011529356646" class="icon-icon-0" data-fill-palette-color="accent" id="SvgjsSvg2246"><path d="M80.603 68.128L64.151 57.056a1 1 0 0 0-1.558 0.83v5.166H45.327L59.835 48.545l3.637 3.638a1 1 0 0 0 1.689-0.516l3.8-19.461a1 1 0 0 0-1.173-1.173l-19.458 3.803a1 1 0 0 0-0.516 1.688l3.651 3.651-14.506 14.502V37.416h5.146a1 1 0 0 0 0.83-1.559L31.857 19.408a1.038 1.038 0 0 0-1.659 0L19.125 35.857a1 1 0 0 0 0.83 1.559h5.166V71.371a3.523 3.523 0 0 0 3.517 3.517H62.593V80.033a1 1 0 0 0 1.558 0.829l16.453-11.075a1 1 0 0 0-0.001-1.659ZM64.593 78.154V74.519a1.633 1.633 0 0 0-1.632-1.631H28.638a1.521 1.521 0 0 1-1.517-1.517V37.045A1.631 1.631 0 0 0 25.49 35.416H21.834l9.194-13.659L40.227 35.416H36.588a1.63 1.63 0 0 0-1.629 1.629V55.575a1.63 1.63 0 0 0 2.781 1.153 0.563 0.563 0 0 0 0.039-0.042l15.362-15.359a1.631 1.631 0 0 0 0-2.305l-2.584-2.584 16.157-3.157-3.156 16.158-2.573-2.573a1.633 1.633 0 0 0-2.3 0.002L43.28 62.27a1.63 1.63 0 0 0 1.155 2.782H62.961a1.633 1.633 0 0 0 1.632-1.631V59.764L78.254 68.958Z" fill="black"></path></svg></g></svg></g></svg></g><defs><mask></mask></defs></svg><rect width="395.52" height="57.32019781989683" fill="black" stroke="none" visibility="hidden"></rect></g></mask></svg><rect width="395.52" height="57.32019781989683" fill="black" stroke="none" visibility="hidden"></rect></g></mask><linearGradient x1="0" x2="1" y1="0.578" y2="0.595" id="a044fea0-0975-4504-bb75-75ed02472b13"><stop stop-color="#6ee2f5" offset="0"></stop><stop stop-color="#6454f0" offset="1"></stop></linearGradient><rect width="395.52" height="57.32019781989683" fill="url(#a044fea0-0975-4504-bb75-75ed02472b13)" mask="url(#7b5ce712-b786-4fe1-bd2e-1310334d003b)" data-fill-palette-color="accent"></rect></svg><rect width="395.52" height="57.32019781989683" fill="none" stroke="none" visibility="hidden"></rect></g></svg></g></svg>